<svg width="54" height="46" viewBox="0 0 54 46" fill="none" xmlns="http://www.w3.org/2000/svg">
<path d="M45.416 30.1961C44.7636 29.8896 44.0484 29.9327 43.4512 30.2307C42.0476 27.6976 38.5677 22.9588 32.7625 24.7589C32.7625 24.7589 31.3147 17.1491 36.2679 13.8215C36.4891 14.2214 36.83 14.561 37.2767 14.7709C38.4031 15.3 39.7491 14.8167 40.2795 13.6876C40.8099 12.5585 40.3226 11.214 39.1962 10.6849C38.0685 10.1551 36.7211 10.6377 36.1907 11.7669C36.0832 11.9957 36.0251 12.2327 35.9993 12.4716C32.5592 12.2173 26.2219 12.6302 22.6208 18.3354C22.6208 18.3354 20.8559 9.95646 11.9641 10.679C11.8751 9.93061 11.422 9.24227 10.6893 8.89804C9.56015 8.36762 8.2149 8.85293 7.68512 9.98068C7.15534 11.1084 7.64065 12.4537 8.76976 12.9841C9.89751 13.5139 11.2414 13.0279 11.7712 11.9002C11.8012 11.8362 11.8158 11.7698 11.8398 11.7046C14.1936 13.0432 17.096 17.0435 12.7828 29.0246L12.4652 30.0192C12.0128 30.9822 15.5394 33.5899 20.3392 35.8446C25.1417 38.1007 29.4002 39.1469 29.8513 38.1867C29.8513 38.1867 33.8614 30.4607 42.371 31.3941C41.9207 32.4977 42.3976 33.7725 43.4913 34.2863C44.6217 34.8173 45.9649 34.3294 46.494 33.203C47.0325 32.071 46.5465 30.7271 45.416 30.1961Z" fill="#E31E1E"/>
</svg>
